<?xml version="1.0" encoding="UTF-8"?>
<svg width="308px" height="308px" viewBox="0 0 308 308" version="1.1" xmlns="http://www.w3.org/2000/svg" xmlns:xlink="http://www.w3.org/1999/xlink">
    <!-- Generator: Sketch 63.1 (92452) - https://sketch.com -->
    <title>memeid-logo</title>
    <desc>Created with Sketch.</desc>
    <g id="memeid-logo" stroke="none" stroke-width="1" fill="none" fill-rule="evenodd">
        <g id="icon-copy" transform="translate(80.000000, 40.000000)" stroke="#455A64" stroke-width="6">
            <path d="M10.3912,121.6936 L10.3912,47.7896 L74.3832,10.8456 L102.888951,27.2893074 C105.056026,28.5393971 106.3912,30.8509963 106.3912,33.3527831 L106.3912,91.0882268 C106.3912,94.95422 103.257193,98.0882268 99.3912,98.0882268 C98.1622708,98.0882268 96.9549986,97.7646921 95.8907594,97.1501502 L52.8983282,72.324292 C49.5504203,70.391052 45.2692041,71.5378669 43.3359641,74.8857748 C42.7215507,75.9497915 42.3980206,77.1567854 42.3978876,78.3854576 L42.3916376,136.122787 C42.3913668,138.624375 43.726081,140.935967 45.8927496,142.186364 L74.3992,158.6376 L74.3992,158.6376 L138.3912,121.6936 L138.3912,47.7896" id="path"></path>
            <path d="M20.3912,121.6936 C20.3912,127.2056 15.9112,131.6936 10.3912,131.6936 C4.8712,131.6936 0.3912,127.2056 0.3912,121.6936 C0.3912,116.1736 4.8712,111.6936 10.3912,111.6936 C15.9112,111.6936 20.3912,116.1736 20.3912,121.6936 Z" id="path" fill="#8ED5CD"></path>
            <path d="M148.3912,47.7872 C148.3912,53.3072 143.9112,57.7872 138.3912,57.7872 C132.8712,57.7872 128.3912,53.3072 128.3912,47.7872 C128.3912,42.2672 132.8712,37.7872 138.3912,37.7872 C143.9112,37.7872 148.3912,42.2672 148.3912,47.7872 Z" id="path" fill="#8ED5CD"></path>
            <path d="M20.3912,47.7872 C20.3912,53.3072 15.9112,57.7872 10.3912,57.7872 C4.8712,57.7872 0.3912,53.3072 0.3912,47.7872 C0.3912,42.2672 4.8712,37.7872 10.3912,37.7872 C15.9112,37.7872 20.3912,42.2672 20.3912,47.7872 Z" id="path" fill="#FFCC80"></path>
            <path d="M84.3912,10.8424 C84.3912,16.3624 79.9112,20.8424 74.3912,20.8424 C68.8712,20.8424 64.3912,16.3624 64.3912,10.8424 C64.3912,5.3224 68.8712,0.8424 74.3912,0.8424 C79.9112,0.8424 84.3912,5.3224 84.3912,10.8424 Z" id="path" fill="#F9759D"></path>
            <path d="M84.3912,158.6392 C84.3912,164.1512 79.9112,168.6392 74.3912,168.6392 C68.8712,168.6392 64.3912,164.1512 64.3912,158.6392 C64.3912,153.1192 68.8712,148.6392 74.3912,148.6392 C79.9112,148.6392 84.3912,153.1192 84.3912,158.6392 Z" id="path" fill="#F9759D"></path>
            <path d="M148.3912,121.6936 C148.3912,127.2056 143.9112,131.6936 138.3912,131.6936 C132.8712,131.6936 128.3912,127.2056 128.3912,121.6936 C128.3912,116.1736 132.8712,111.6936 138.3912,111.6936 C143.9112,111.6936 148.3912,116.1736 148.3912,121.6936 Z" id="path" fill="#FFCC80"></path>
        </g>
        <path d="M83.4854118,260 L83.4854118,251.36 C83.4854118,249.866667 83.8267451,248.741333 84.5094118,247.984 C85.1920784,247.226667 86.1094118,246.848 87.2614118,246.848 C89.4374118,246.848 90.5254118,248.202667 90.5254118,250.912 L90.5254118,250.912 L90.5254118,260 L95.5174118,260 L95.5174118,251.36 C95.5174118,249.866667 95.8587451,248.741333 96.5414118,247.984 C97.2240784,247.226667 98.1520784,246.848 99.3254118,246.848 C100.370745,246.848 101.176078,247.184 101.741412,247.856 C102.306745,248.528 102.589412,249.546667 102.589412,250.912 L102.589412,250.912 L102.589412,260 L107.581412,260 L107.581412,250.144 C107.581412,247.605333 106.946745,245.701333 105.677412,244.432 C104.408078,243.162667 102.696078,242.528 100.541412,242.528 C99.2614118,242.528 98.0827451,242.773333 97.0054118,243.264 C95.9280784,243.754667 95.0374118,244.448 94.3334118,245.344 C93.7360784,244.426667 92.9467451,243.728 91.9654118,243.248 C90.9840784,242.768 89.8854118,242.528 88.6694118,242.528 C87.5600784,242.528 86.5414118,242.72 85.6134118,243.104 C84.6854118,243.488 83.9014118,244.042667 83.2614118,244.768 L83.2614118,244.768 L83.2614118,242.784 L78.4934118,242.784 L78.4934118,260 L83.4854118,260 Z M123.620941,260.256 C126.735608,260.256 129.103608,259.328 130.724941,257.472 L130.724941,257.472 L128.068941,254.592 C127.471608,255.168 126.826275,255.589333 126.132941,255.856 C125.439608,256.122667 124.644941,256.256 123.748941,256.256 C122.447608,256.256 121.359608,255.946667 120.484941,255.328 C119.610275,254.709333 119.055608,253.866667 118.820941,252.8 L118.820941,252.8 L131.844941,252.8 C131.908941,251.968 131.940941,251.52 131.940941,251.456 C131.940941,249.664 131.551608,248.090667 130.772941,246.736 C129.994275,245.381333 128.922275,244.341333 127.556941,243.616 C126.191608,242.890667 124.666275,242.528 122.980941,242.528 C121.252941,242.528 119.690275,242.906667 118.292941,243.664 C116.895608,244.421333 115.796941,245.477333 114.996941,246.832 C114.196941,248.186667 113.796941,249.706667 113.796941,251.392 C113.796941,253.098667 114.202275,254.624 115.012941,255.968 C115.823608,257.312 116.975608,258.362667 118.468941,259.12 C119.962275,259.877333 121.679608,260.256 123.620941,260.256 Z M127.236941,249.888 L118.756941,249.888 C118.927608,248.778667 119.396941,247.904 120.164941,247.264 C120.932941,246.624 121.882275,246.304 123.012941,246.304 C124.122275,246.304 125.060941,246.629333 125.828941,247.28 C126.596941,247.930667 127.066275,248.8 127.236941,249.888 L127.236941,249.888 Z M143.084471,260 L143.084471,251.36 C143.084471,249.866667 143.425804,248.741333 144.108471,247.984 C144.791137,247.226667 145.708471,246.848 146.860471,246.848 C149.036471,246.848 150.124471,248.202667 150.124471,250.912 L150.124471,250.912 L150.124471,260 L155.116471,260 L155.116471,251.36 C155.116471,249.866667 155.457804,248.741333 156.140471,247.984 C156.823137,247.226667 157.751137,246.848 158.924471,246.848 C159.969804,246.848 160.775137,247.184 161.340471,247.856 C161.905804,248.528 162.188471,249.546667 162.188471,250.912 L162.188471,250.912 L162.188471,260 L167.180471,260 L167.180471,250.144 C167.180471,247.605333 166.545804,245.701333 165.276471,244.432 C164.007137,243.162667 162.295137,242.528 160.140471,242.528 C158.860471,242.528 157.681804,242.773333 156.604471,243.264 C155.527137,243.754667 154.636471,244.448 153.932471,245.344 C153.335137,244.426667 152.545804,243.728 151.564471,243.248 C150.583137,242.768 149.484471,242.528 148.268471,242.528 C147.159137,242.528 146.140471,242.72 145.212471,243.104 C144.284471,243.488 143.500471,244.042667 142.860471,244.768 L142.860471,244.768 L142.860471,242.784 L138.092471,242.784 L138.092471,260 L143.084471,260 Z M183.22,260.256 C186.334667,260.256 188.702667,259.328 190.324,257.472 L190.324,257.472 L187.668,254.592 C187.070667,255.168 186.425333,255.589333 185.732,255.856 C185.038667,256.122667 184.244,256.256 183.348,256.256 C182.046667,256.256 180.958667,255.946667 180.084,255.328 C179.209333,254.709333 178.654667,253.866667 178.42,252.8 L178.42,252.8 L191.444,252.8 C191.508,251.968 191.54,251.52 191.54,251.456 C191.54,249.664 191.150667,248.090667 190.372,246.736 C189.593333,245.381333 188.521333,244.341333 187.156,243.616 C185.790667,242.890667 184.265333,242.528 182.58,242.528 C180.852,242.528 179.289333,242.906667 177.892,243.664 C176.494667,244.421333 175.396,245.477333 174.596,246.832 C173.796,248.186667 173.396,249.706667 173.396,251.392 C173.396,253.098667 173.801333,254.624 174.612,255.968 C175.422667,257.312 176.574667,258.362667 178.068,259.12 C179.561333,259.877333 181.278667,260.256 183.22,260.256 Z M186.836,249.888 L178.356,249.888 C178.526667,248.778667 178.996,247.904 179.764,247.264 C180.532,246.624 181.481333,246.304 182.612,246.304 C183.721333,246.304 184.66,246.629333 185.428,247.28 C186.196,247.930667 186.665333,248.8 186.836,249.888 L186.836,249.888 Z M200.187529,240.384 C201.104863,240.384 201.851529,240.112 202.427529,239.568 C203.003529,239.024 203.291529,238.336 203.291529,237.504 C203.291529,236.736 203.003529,236.096 202.427529,235.584 C201.851529,235.072 201.104863,234.816 200.187529,234.816 C199.270196,234.816 198.523529,235.082667 197.947529,235.616 C197.371529,236.149333 197.083529,236.810667 197.083529,237.6 C197.083529,238.389333 197.371529,239.050667 197.947529,239.584 C198.523529,240.117333 199.270196,240.384 200.187529,240.384 Z M202.683529,260 L202.683529,242.784 L197.691529,242.784 L197.691529,260 L202.683529,260 Z M217.539059,260.256 C219.885725,260.256 221.677725,259.509333 222.915059,258.016 L222.915059,258.016 L222.915059,260 L227.683059,260 L227.683059,236.256 L222.691059,236.256 L222.691059,244.608 C221.453725,243.221333 219.736392,242.528 217.539059,242.528 C215.917725,242.528 214.451059,242.890667 213.139059,243.616 C211.827059,244.341333 210.797725,245.376 210.051059,246.72 C209.304392,248.064 208.931059,249.621333 208.931059,251.392 C208.931059,253.162667 209.304392,254.72 210.051059,256.064 C210.797725,257.408 211.827059,258.442667 213.139059,259.168 C214.451059,259.893333 215.917725,260.256 217.539059,260.256 Z M218.403059,256.16 C217.123059,256.16 216.067059,255.728 215.235059,254.864 C214.403059,254 213.987059,252.842667 213.987059,251.392 C213.987059,249.941333 214.403059,248.784 215.235059,247.92 C216.067059,247.056 217.123059,246.624 218.403059,246.624 C219.661725,246.624 220.707059,247.056 221.539059,247.92 C222.371059,248.784 222.787059,249.941333 222.787059,251.392 C222.787059,252.842667 222.371059,254 221.539059,254.864 C220.707059,255.728 219.661725,256.16 218.403059,256.16 Z" id="memeid" fill="#455A64" fill-rule="nonzero"></path>
    </g>
</svg>